<svg width="72" height="72" version="1.1" xmlns="http://www.w3.org/2000/svg" desc="Created with imagetracer.js version 1.2.6" ><path fill="rgb(0,0,0)" stroke="rgb(0,0,0)" stroke-width="1" opacity="0" d="M 0.5 0 L 1 70.5 L 2 71.5 L 0 72 L 0.5 0 Z " /><path fill="rgb(0,0,0)" stroke="rgb(0,0,0)" stroke-width="1" opacity="0" d="M 47.5 0 L 72 0 L 72 72 L 47 71.5 L 48 70.5 L 48 56 L 44 56 L 44 68.5 L 43.5 69 L 5 69 L 5 3 L 44 3 L 44 15.5 L 48 16 L 48 1.5 L 47.5 0 Z M 35 22 L 21 37 L 35 50 L 37 50 L 38 49 L 28 39 L 70 38 L 71 36 L 70 34 L 29 34 L 37 25 Q 38 21 35 22 Z " /><path fill="rgb(0,0,0)" stroke="rgb(0,0,0)" stroke-width="1" opacity="0.9882352941176471" d="M 2 0 L 47 0 L 47 16 L 45 15.5 L 45 3.5 L 44.5 3 L 4 3 L 4 69 L 45 69 L 45 56.5 L 47 56 L 47 72 L 2 72 L 2 0 Z " /><path fill="rgb(0,0,0)" stroke="rgb(0,0,0)" stroke-width="1" opacity="0.9882352941176471" d="M 35.5 22 Q 37.8 21.3 37 23.5 L 27 33.5 L 27 35 L 69.5 35 L 70 37 L 27.5 37 L 27 38.5 L 37 48.5 L 37 50 L 35.5 50 L 22 36.5 L 35.5 22 Z " /><path fill="rgb(0,0,0)" stroke="rgb(0,0,0)" stroke-width="1" opacity="0.48627450980392156" d="M 1.5 0 L 2 70.5 L 1 70.5 L 1.5 0 Z " /><path fill="rgb(0,0,0)" stroke="rgb(0,0,0)" stroke-width="1" opacity="0.48627450980392156" d="M 47.5 1 L 48 15.5 L 47 15.5 L 47.5 1 Z " /><path fill="rgb(0,0,0)" stroke="rgb(0,0,0)" stroke-width="1" opacity="0.48627450980392156" d="M 4.5 3 L 5 68.5 L 4 68.5 L 4.5 3 Z " /><path fill="rgb(0,0,0)" stroke="rgb(0,0,0)" stroke-width="1" opacity="0.48627450980392156" d="M 44.5 3 L 45 15.5 L 44 15.5 L 44.5 3 Z " /><path fill="rgb(0,0,0)" stroke="rgb(0,0,0)" stroke-width="1" opacity="0.48627450980392156" d="M 34.5 22 L 22 35.5 L 35 49.5 L 21 36.5 L 34.5 22 Z " /><path fill="rgb(0,0,0)" stroke="rgb(0,0,0)" stroke-width="1" opacity="0.48627450980392156" d="M 36.5 24 L 28.5 34 L 69.5 34 L 71 35.5 L 69.5 38 L 28 38.5 L 37.5 49 L 27 38.5 L 27 37 L 69.5 37 L 70 35 L 27.5 35 L 27 33.5 L 36.5 24 Z " /><path fill="rgb(0,0,0)" stroke="rgb(0,0,0)" stroke-width="1" opacity="0.48627450980392156" d="M 44.5 56 L 45 68.5 L 44 68.5 L 44.5 56 Z " /><path fill="rgb(0,0,0)" stroke="rgb(0,0,0)" stroke-width="1" opacity="0.48627450980392156" d="M 47.5 56 L 48 70.5 L 47 70.5 L 47.5 56 Z " /></svg>