<svg width="72" height="72" viewBox="0 0 72 72" version="1.1" xmlns="http://www.w3.org/2000/svg" desc="Created with imagetracer.js version 1.2.6">
<path fill="rgb(0,0,0)" stroke="rgb(0,0,0)" stroke-width="1" opacity="0" d="M 0 0 L 2 0.5 L 0 1.5 L 0 0 Z " /><path fill="rgb(0,0,0)" stroke="rgb(0,0,0)" stroke-width="1" opacity="0" d="M 56.5 0 L 72 0 L 72 34.5 L 55.5 19 Q 52.2 17.9 53 20.5 L 65.5 34 L 24.5 34 L 23 35.5 L 24.5 38 L 66 38.5 L 53 51.5 L 53 53 L 55.5 53 L 71.5 37 L 72 72 L 56 71.5 L 58 68.5 L 58 56.5 L 54 59.5 L 54 68.5 L 53.5 69 L 4.5 69 L 3 67.5 L 3 3 L 53.5 3 L 54 3.5 L 54 12.5 L 58 15.5 Q 59.5 4 56.5 0 Z " /><path fill="rgb(0,0,0)" stroke="rgb(0,0,0)" stroke-width="1" opacity="0" d="M 0.5 70 L 1.5 72 Q -1.3 72.7 0.5 70 Z " /><path fill="rgb(0,0,0)" stroke="rgb(0,0,0)" stroke-width="1" opacity="0.43137254901960786" d="M 55.5 0 L 56.5 2 L 55.5 0 Z " /><path fill="rgb(0,0,0)" stroke="rgb(0,0,0)" stroke-width="1" opacity="0.43137254901960786" d="M 54.5 4 L 55 12.5 L 54 12.5 L 54.5 4 Z " /><path fill="rgb(0,0,0)" stroke="rgb(0,0,0)" stroke-width="1" opacity="0.43137254901960786" d="M 24.5 34 L 66 34.5 L 24.5 35 L 24.5 34 Z " /><path fill="rgb(0,0,0)" stroke="rgb(0,0,0)" stroke-width="1" opacity="0.43137254901960786" d="M 24.5 37 L 66 37.5 L 24.5 38 L 24.5 37 Z " /><path fill="rgb(0,0,0)" stroke="rgb(0,0,0)" stroke-width="1" opacity="0.43137254901960786" d="M 54.5 59 L 55 67.5 L 54 67.5 L 54.5 59 Z " /><path fill="rgb(0,0,0)" stroke="rgb(0,0,0)" stroke-width="1" opacity="0.43137254901960786" d="M 56.5 70 L 55.5 72 L 56.5 70 Z " /><path fill="rgb(0,0,0)" stroke="rgb(0,0,0)" stroke-width="1" opacity="0.8745098039215686" d="M 4.5 2 L 54 2.5 L 4.5 3 L 4.5 2 Z " /><path fill="rgb(0,0,0)" stroke="rgb(0,0,0)" stroke-width="1" opacity="0.8745098039215686" d="M 2.5 4 L 3 67.5 L 2 67.5 L 2.5 4 Z " /><path fill="rgb(0,0,0)" stroke="rgb(0,0,0)" stroke-width="1" opacity="0.8745098039215686" d="M 55.5 19 L 72 36.5 L 55 52.5 L 71 35.5 L 55.5 19 Z " /><path fill="rgb(0,0,0)" stroke="rgb(0,0,0)" stroke-width="1" opacity="0.8745098039215686" d="M 54.5 21 L 66.5 34 L 54.5 21 Z " /><path fill="rgb(0,0,0)" stroke="rgb(0,0,0)" stroke-width="1" opacity="0.8745098039215686" d="M 66.5 38 L 54.5 51 L 66.5 38 Z " /><path fill="rgb(0,0,0)" stroke="rgb(0,0,0)" stroke-width="1" opacity="0.8745098039215686" d="M 4.5 69 L 54 69.5 L 4.5 70 L 4.5 69 Z " /><path fill="rgb(0,0,0)" stroke="rgb(0,0,0)" stroke-width="1" opacity="0.996078431372549" d="M 3.5 2 L 2.5 4 L 3.5 2 Z " /><path fill="rgb(0,0,0)" stroke="rgb(0,0,0)" stroke-width="1" opacity="0.996078431372549" d="M 2.5 68 L 3.5 70 L 2.5 68 Z " /><path fill="rgb(0,0,0)" stroke="rgb(0,0,0)" stroke-width="1" opacity="1" d="M 4.5 0 L 52.5 0 L 56 1 Q 58.3 4.6 57 13.5 L 55 12.5 L 55 3.5 L 53.5 2 L 3.5 2 L 2 3.5 L 2 68.5 L 3.5 70 L 53.5 70 L 55 68.5 L 55 59.5 L 56.5 58 L 57 68.5 L 56 71 L 52.5 72 L 4.5 72 L 1 69.5 L 0 66.5 L 0 5.5 L 2.5 1 L 4.5 0 Z " /><path fill="rgb(0,0,0)" stroke="rgb(0,0,0)" stroke-width="1" opacity="1" d="M 54.5 20 L 71 35.5 L 54.5 53 L 54 51.5 L 67 38.5 L 67 37 L 24.5 37 L 24 35 L 66.5 35 L 67 33.5 L 54.5 20 Z " /><path fill="rgb(0,0,0)" stroke="rgb(0,0,0)" stroke-width="1" opacity="0.6078431372549019" d="M 57.5 4 L 58 15 L 55 13.5 L 57 13.5 L 57.5 4 Z " /><path fill="rgb(0,0,0)" stroke="rgb(0,0,0)" stroke-width="1" opacity="0.6078431372549019" d="M 56.5 57 L 58 57.5 L 58 67.5 L 57 67.5 L 56.5 58 L 55 58.5 L 56.5 57 Z " /></svg>