<svg width="300" height="300" version="1.1" xmlns="http://www.w3.org/2000/svg" desc="Created with imagetracer.js version 1.2.6" ><path fill="rgb(0,0,0)" stroke="rgb(0,0,0)" stroke-width="1" opacity="0" d="M 0 0 L 300 0 L 300 300 L 0 300 L 0 0 Z M 142 12 L 124 17 L 112 24 Q 100 33 93 46 L 88 59 L 87 70 L 86 71 L 86 82 L 88 91 L 98 114 L 118 145 L 144 177 L 150 180 L 173 154 L 186 136 L 187 132 L 177 123 L 173 117 L 162 122 L 142 122 L 128 116 L 123 112 Q 111 102 107 84 L 107 74 L 109 65 L 120 47 Q 129 38 143 34 L 161 34 Q 174 38 183 46 Q 192 55 196 71 L 196 84 L 194 92 L 206 100 L 209 94 L 212 78 L 211 66 L 208 54 L 203 43 L 198 36 Q 189 24 175 17 L 157 12 L 142 12 Z M 148 42 Q 137 44 131 49 L 121 60 L 117 69 Q 119 75 116 77 L 117 89 L 122 99 Q 130 111 148 114 Q 165 115 174 106 L 180 109 Q 182 110 181 115 L 190 123 L 217 144 L 223 144 L 226 142 L 228 138 L 227 130 L 196 103 Q 194 100 188 101 L 183 97 L 187 86 Q 188 75 186 68 L 178 54 Q 172 46 162 43 L 148 42 Z M 120 195 L 97 200 Q 93 202 94 207 L 101 207 L 116 203 L 120 204 L 97 222 L 100 227 L 106 225 L 123 212 L 135 221 L 139 221 L 140 219 L 138 214 L 129 207 L 132 202 L 131 197 L 130 195 L 120 195 Z M 184 195 L 161 200 Q 157 202 158 207 L 165 207 L 180 203 L 184 204 L 161 222 L 164 227 L 170 225 L 187 212 L 199 221 L 203 221 L 204 219 L 202 214 L 193 207 L 196 202 L 195 197 L 194 195 L 184 195 Z M 142 223 L 141 224 L 132 224 L 131 225 L 103 228 L 97 230 L 92 230 L 88 233 Q 87 236 90 237 L 99 237 L 119 233 L 121 235 L 120 238 L 120 246 L 121 247 L 120 248 L 101 251 L 100 244 L 99 242 Q 94 241 93 245 L 96 265 L 101 272 L 133 271 L 141 269 L 144 265 L 145 252 L 146 251 L 146 239 L 145 236 L 139 235 L 138 238 L 138 247 L 127 247 L 129 232 L 145 231 L 148 229 L 147 224 L 142 223 Z M 206 223 L 205 224 L 196 224 L 195 225 L 167 228 L 161 230 L 156 230 L 152 233 Q 151 236 154 237 L 163 237 L 183 233 L 185 235 L 184 238 L 184 246 L 185 247 L 184 248 L 165 251 L 164 244 L 163 242 Q 158 241 157 245 L 160 265 L 165 272 L 197 271 L 205 269 L 208 265 L 209 252 L 210 251 L 210 239 L 209 236 L 203 235 L 202 238 L 202 247 L 191 247 L 193 232 L 209 231 L 212 229 L 211 224 L 206 223 Z " /><path fill="rgb(0,0,0)" stroke="rgb(0,0,0)" stroke-width="1" opacity="0" d="M 149.5 52 Q 166.1 52.9 173 63.5 L 177 74.5 L 177 81.5 Q 175 92.5 167.5 98 Q 160.7 104.7 145.5 103 Q 136.3 100.3 131 93.5 Q 125.9 87.6 126 76.5 Q 128 63.5 136.5 57 L 149.5 52 Z " /><path fill="rgb(0,0,0)" stroke="rgb(0,0,0)" stroke-width="1" opacity="0" d="M 121.5 255 L 136.5 255 L 137 258.5 L 134.5 262 L 125.5 264 L 105 265 L 104 258 L 121.5 255 Z " /><path fill="rgb(0,0,0)" stroke="rgb(0,0,0)" stroke-width="1" opacity="0" d="M 185.5 255 L 200.5 255 L 201 258.5 L 198.5 262 L 189.5 264 L 169 265 L 168 258 L 185.5 255 Z " /><path fill="rgb(2,118,96)" stroke="rgb(2,118,96)" stroke-width="1" opacity="0.9882352941176471" d="M 147.5 42 L 155.5 42 L 163.5 44 L 178 53 L 186 67.5 Q 188.4 74.6 187 85.5 L 183 96.5 L 187.5 101 Q 193.2 100.3 195.5 103 L 227 129.5 L 228 137.5 L 223.5 143 L 216.5 144 L 199 130.5 Q 199.8 128.3 197.5 129 L 181 114.5 Q 182 109 178.5 108 Q 175.9 108.7 177 106 L 173.5 106 L 160.5 113 L 148.5 114 Q 147.3 111.8 142.5 113 L 131.5 108 L 122 98.5 L 117 88.5 L 116 77.5 L 117 76.5 L 117 68.5 L 121 59.5 L 130.5 49 Q 137.4 43.9 147.5 42 Z M 149 52 L 137 57 Q 128 63 126 76 L 126 82 L 130 93 Q 136 100 146 103 Q 161 105 168 98 Q 175 93 177 83 L 177 74 L 173 64 Q 166 52 149 52 Z " /><path fill="rgb(2,118,96)" stroke="rgb(2,118,96)" stroke-width="1" opacity="0.9882352941176471" d="M 123.5 195 Q 129.3 194.2 131 197.5 Q 131.7 204.2 128 206.5 L 138 214.5 L 139 220 L 135.5 221 L 124.5 212 L 121.5 212 L 104.5 225 L 99.5 226 Q 97.3 225.3 98 221.5 L 121 203.5 Q 121.9 200.5 117.5 202 L 96.5 207 L 94 206 Q 93.3 202.2 96.5 201 L 123.5 195 Z " /><path fill="rgb(2,118,96)" stroke="rgb(2,118,96)" stroke-width="1" opacity="0.9882352941176471" d="M 187.5 195 Q 193.3 194.2 195 197.5 Q 195.7 204.2 192 206.5 L 202 214.5 L 203 220 L 199.5 221 L 188.5 212 L 185.5 212 L 168.5 225 L 163.5 226 Q 161.3 225.3 162 221.5 L 185 203.5 Q 185.9 200.5 181.5 202 L 160.5 207 L 158 206 Q 157.3 202.2 160.5 201 L 187.5 195 Z " /><path fill="rgb(2,118,96)" stroke="rgb(2,118,96)" stroke-width="1" opacity="0.9882352941176471" d="M 137.5 224 Q 145.3 222.2 147 226.5 L 145.5 230 Q 140 232.5 130.5 231 L 128 232 L 128 240.5 L 126 248 L 138 248 L 138 242.5 L 139 236 L 144 236 L 144 237.5 L 145 238.5 L 145 255.5 Q 142.5 257 144 262.5 L 140.5 268 L 135.5 270 L 101.5 272 L 99 271 L 94 251.5 L 94 244.5 Q 95.2 242 99 243 L 100 249.5 L 101.5 251 L 119.5 249 L 121 247.5 L 121 233 L 114.5 233 L 113.5 234 L 90.5 237 Q 86.3 235.2 89 233.5 L 90.5 231 L 113.5 228 L 120.5 226 L 136.5 225 L 137.5 224 Z M 126 254 L 125 255 L 109 256 L 103 259 L 104 265 L 106 266 L 135 263 L 137 261 L 138 256 L 137 254 L 126 254 Z " /><path fill="rgb(2,118,96)" stroke="rgb(2,118,96)" stroke-width="1" opacity="0.9882352941176471" d="M 201.5 224 Q 209.3 222.2 211 226.5 L 209.5 230 Q 204 232.5 194.5 231 L 192 232 L 192 240.5 L 190 248 L 202 248 L 202 242.5 L 203 236 L 208 236 L 208 237.5 L 209 238.5 L 209 255.5 Q 206.5 257 208 262.5 L 204.5 268 L 199.5 270 L 165.5 272 L 163 271 L 158 251.5 L 158 244.5 Q 159.2 242 163 243 L 164 249.5 L 165.5 251 L 183.5 249 L 185 247.5 L 185 233 L 178.5 233 L 177.5 234 L 154.5 237 Q 150.3 235.2 153 233.5 L 154.5 231 L 177.5 228 L 184.5 226 L 200.5 225 L 201.5 224 Z M 190 254 L 189 255 L 173 256 L 167 259 L 168 265 L 170 266 L 199 263 L 201 261 L 202 256 L 201 254 L 190 254 Z " /><path fill="rgb(8,192,163)" stroke="rgb(8,192,163)" stroke-width="1" opacity="1" d="M 141.5 12 L 156.5 12 L 174.5 17 Q 188.8 23.8 198 35.5 L 203 42.5 L 208 53.5 L 211 65.5 L 212 77.5 L 209 93.5 L 205.5 100 L 194 91.5 L 196 83.5 L 196 70.5 Q 192 55.5 182.5 46 Q 173.7 37.8 160.5 34 L 142.5 34 Q 128.6 37.6 120 46.5 L 109 64.5 L 107 73.5 L 107 83.5 Q 110.5 102 122.5 112 L 127.5 116 L 141.5 122 L 161.5 122 L 172.5 117 L 176.5 123 L 187 131.5 L 186 135.5 L 173 153.5 L 149.5 180 L 144 176.5 L 118 144.5 L 98 113.5 L 88 90.5 L 86 81.5 L 86 70.5 L 87 69.5 L 88 58.5 L 93 45.5 Q 100.3 32.8 111.5 24 L 123.5 17 L 141.5 12 Z " /><path fill="rgb(8,192,163)" stroke="rgb(8,192,163)" stroke-width="1" opacity="1" d="M 175.5 51 L 176.5 53 L 175.5 51 Z " /><path fill="rgb(8,192,163)" stroke="rgb(8,192,163)" stroke-width="1" opacity="1" d="M 220.5 123 L 222.5 126 L 220.5 123 Z " /><path fill="rgb(0,116,93)" stroke="rgb(0,116,93)" stroke-width="1" opacity="0.3254901960784314" d="M 119.5 195 L 123 195.5 L 119.5 196 L 119.5 195 Z " /><path fill="rgb(0,116,93)" stroke="rgb(0,116,93)" stroke-width="1" opacity="0.3254901960784314" d="M 128.5 195 L 131 196.5 L 129.5 196 L 128.5 195 Z " /><path fill="rgb(0,116,93)" stroke="rgb(0,116,93)" stroke-width="1" opacity="0.3254901960784314" d="M 183.5 195 L 187 195.5 L 183.5 196 L 183.5 195 Z " /><path fill="rgb(0,116,93)" stroke="rgb(0,116,93)" stroke-width="1" opacity="0.3254901960784314" d="M 192.5 195 L 195 196.5 L 193.5 196 L 192.5 195 Z " /><path fill="rgb(0,116,93)" stroke="rgb(0,116,93)" stroke-width="1" opacity="0.3254901960784314" d="M 113.5 196 L 117 196.5 L 113.5 197 L 113.5 196 Z " /><path fill="rgb(0,116,93)" stroke="rgb(0,116,93)" stroke-width="1" opacity="0.3254901960784314" d="M 177.5 196 L 181 196.5 L 177.5 197 L 177.5 196 Z " /><path fill="rgb(0,116,93)" stroke="rgb(0,116,93)" stroke-width="1" opacity="0.3254901960784314" d="M 108.5 197 L 111 197.5 L 108.5 198 L 108.5 197 Z " /><path fill="rgb(0,116,93)" stroke="rgb(0,116,93)" stroke-width="1" opacity="0.3254901960784314" d="M 172.5 197 L 175 197.5 L 172.5 198 L 172.5 197 Z " /><path fill="rgb(0,116,93)" stroke="rgb(0,116,93)" stroke-width="1" opacity="0.3254901960784314" d="M 131.5 198 L 132 201.5 L 130 202.5 L 131.5 198 Z " /><path fill="rgb(0,116,93)" stroke="rgb(0,116,93)" stroke-width="1" opacity="0.3254901960784314" d="M 195.5 198 L 196 201.5 L 194 202.5 L 195.5 198 Z " /><path fill="rgb(0,116,93)" stroke="rgb(0,116,93)" stroke-width="1" opacity="0.3254901960784314" d="M 96.5 200 L 99 200.5 L 94.5 203 L 96.5 200 Z " /><path fill="rgb(0,116,93)" stroke="rgb(0,116,93)" stroke-width="1" opacity="0.3254901960784314" d="M 160.5 200 L 163 200.5 L 158.5 203 L 160.5 200 Z " /><path fill="rgb(0,116,93)" stroke="rgb(0,116,93)" stroke-width="1" opacity="0.3254901960784314" d="M 117.5 202 Q 121.9 200.5 121 203.5 L 117 206.5 L 119.5 203 Q 116.5 203.5 117.5 202 Z " /><path fill="rgb(0,116,93)" stroke="rgb(0,116,93)" stroke-width="1" opacity="0.3254901960784314" d="M 181.5 202 Q 185.9 200.5 185 203.5 L 181 206.5 L 183.5 203 Q 180.5 203.5 181.5 202 Z " /><path fill="rgb(0,116,93)" stroke="rgb(0,116,93)" stroke-width="1" opacity="0.3254901960784314" d="M 111.5 203 L 115 203.5 L 111.5 204 L 111.5 203 Z " /><path fill="rgb(0,116,93)" stroke="rgb(0,116,93)" stroke-width="1" opacity="0.3254901960784314" d="M 175.5 203 L 179 203.5 L 175.5 204 L 175.5 203 Z " /><path fill="rgb(0,116,93)" stroke="rgb(0,116,93)" stroke-width="1" opacity="0.3254901960784314" d="M 106.5 204 L 110 204.5 L 106.5 205 L 106.5 204 Z " /><path fill="rgb(0,116,93)" stroke="rgb(0,116,93)" stroke-width="1" opacity="0.3254901960784314" d="M 129.5 204 L 129 205.5 Q 128.3 207.8 130.5 207 L 134.5 212 L 128 206.5 L 129.5 204 Z " /><path fill="rgb(0,116,93)" stroke="rgb(0,116,93)" stroke-width="1" opacity="0.3254901960784314" d="M 170.5 204 L 174 204.5 L 170.5 205 L 170.5 204 Z " /><path fill="rgb(0,116,93)" stroke="rgb(0,116,93)" stroke-width="1" opacity="0.3254901960784314" d="M 193.5 204 L 193 205.5 Q 192.3 207.8 194.5 207 L 198.5 212 L 192 206.5 L 193.5 204 Z " /><path fill="rgb(0,116,93)" stroke="rgb(0,116,93)" stroke-width="1" opacity="0.3254901960784314" d="M 102.5 205 L 105 205.5 L 102.5 206 L 102.5 205 Z " /><path fill="rgb(0,116,93)" stroke="rgb(0,116,93)" stroke-width="1" opacity="0.3254901960784314" d="M 166.5 205 L 169 205.5 L 166.5 206 L 166.5 205 Z " /><path fill="rgb(0,116,93)" stroke="rgb(0,116,93)" stroke-width="1" opacity="0.3254901960784314" d="M 115.5 207 L 111.5 212 L 98 221.5 L 97.5 224 L 97 221.5 L 115.5 207 Z " /><path fill="rgb(0,116,93)" stroke="rgb(0,116,93)" stroke-width="1" opacity="0.3254901960784314" d="M 179.5 207 L 175.5 212 L 162 221.5 L 161.5 224 L 161 221.5 L 179.5 207 Z " /><path fill="rgb(0,116,93)" stroke="rgb(0,116,93)" stroke-width="1" opacity="0.3254901960784314" d="M 124.5 212 L 125.5 214 L 124.5 212 Z " /><path fill="rgb(0,116,93)" stroke="rgb(0,116,93)" stroke-width="1" opacity="0.3254901960784314" d="M 136.5 212 L 137.5 214 L 136.5 212 Z " /><path fill="rgb(0,116,93)" stroke="rgb(0,116,93)" stroke-width="1" opacity="0.3254901960784314" d="M 188.5 212 L 189.5 214 L 188.5 212 Z " /><path fill="rgb(0,116,93)" stroke="rgb(0,116,93)" stroke-width="1" opacity="0.3254901960784314" d="M 200.5 212 L 201.5 214 L 200.5 212 Z " /><path fill="rgb(0,116,93)" stroke="rgb(0,116,93)" stroke-width="1" opacity="0.3254901960784314" d="M 119.5 213 L 116.5 217 L 119.5 213 Z " /><path fill="rgb(0,116,93)" stroke="rgb(0,116,93)" stroke-width="1" opacity="0.3254901960784314" d="M 183.5 213 L 180.5 217 L 183.5 213 Z " /><path fill="rgb(0,116,93)" stroke="rgb(0,116,93)" stroke-width="1" opacity="0.3254901960784314" d="M 127.5 214 L 135 220.5 L 130.5 217 L 127.5 214 Z " /><path fill="rgb(0,116,93)" stroke="rgb(0,116,93)" stroke-width="1" opacity="0.3254901960784314" d="M 191.5 214 L 199 220.5 L 194.5 217 L 191.5 214 Z " /><path fill="rgb(0,116,93)" stroke="rgb(0,116,93)" stroke-width="1" opacity="0.3254901960784314" d="M 138.5 215 L 140 218.5 L 139 218.5 L 138.5 215 Z " /><path fill="rgb(0,116,93)" stroke="rgb(0,116,93)" stroke-width="1" opacity="0.3254901960784314" d="M 202.5 215 L 204 218.5 L 203 218.5 L 202.5 215 Z " /><path fill="rgb(0,116,93)" stroke="rgb(0,116,93)" stroke-width="1" opacity="0.3254901960784314" d="M 114.5 217 L 112.5 220 L 114.5 217 Z " /><path fill="rgb(0,116,93)" stroke="rgb(0,116,93)" stroke-width="1" opacity="0.3254901960784314" d="M 178.5 217 L 176.5 220 L 178.5 217 Z " /><path fill="rgb(0,116,93)" stroke="rgb(0,116,93)" stroke-width="1" opacity="0.3254901960784314" d="M 110.5 220 L 108.5 223 L 110.5 220 Z " /><path fill="rgb(0,116,93)" stroke="rgb(0,116,93)" stroke-width="1" opacity="0.3254901960784314" d="M 174.5 220 L 172.5 223 L 174.5 220 Z " /><path fill="rgb(0,116,93)" stroke="rgb(0,116,93)" stroke-width="1" opacity="0.3254901960784314" d="M 106.5 223 L 105.5 225 L 106.5 223 Z " /><path fill="rgb(0,116,93)" stroke="rgb(0,116,93)" stroke-width="1" opacity="0.3254901960784314" d="M 170.5 223 L 169.5 225 L 170.5 223 Z " /><path fill="rgb(0,116,93)" stroke="rgb(0,116,93)" stroke-width="1" opacity="0.3254901960784314" d="M 131.5 224 L 137 224.5 L 131.5 225 L 131.5 224 Z " /><path fill="rgb(0,116,93)" stroke="rgb(0,116,93)" stroke-width="1" opacity="0.3254901960784314" d="M 145.5 224 Q 147.8 223.3 147 225.5 L 148 228.5 L 146 229.5 L 147 226.5 L 145.5 224 Z " /><path fill="rgb(0,116,93)" stroke="rgb(0,116,93)" stroke-width="1" opacity="0.3254901960784314" d="M 195.5 224 L 201 224.5 L 195.5 225 L 195.5 224 Z " /><path fill="rgb(0,116,93)" stroke="rgb(0,116,93)" stroke-width="1" opacity="0.3254901960784314" d="M 209.5 224 Q 211.8 223.3 211 225.5 L 212 228.5 L 210 229.5 L 211 226.5 L 209.5 224 Z " /><path fill="rgb(0,116,93)" stroke="rgb(0,116,93)" stroke-width="1" opacity="0.3254901960784314" d="M 98.5 225 L 102 226.5 L 99.5 227 L 98.5 225 Z " /><path fill="rgb(0,116,93)" stroke="rgb(0,116,93)" stroke-width="1" opacity="0.3254901960784314" d="M 123.5 225 L 128 225.5 L 123.5 226 L 123.5 225 Z " /><path fill="rgb(0,116,93)" stroke="rgb(0,116,93)" stroke-width="1" opacity="0.3254901960784314" d="M 162.5 225 L 166 226.5 L 163.5 227 L 162.5 225 Z " /><path fill="rgb(0,116,93)" stroke="rgb(0,116,93)" stroke-width="1" opacity="0.3254901960784314" d="M 187.5 225 L 192 225.5 L 187.5 226 L 187.5 225 Z " /><path fill="rgb(0,116,93)" stroke="rgb(0,116,93)" stroke-width="1" opacity="0.3254901960784314" d="M 116.5 226 L 120 226.5 L 116.5 227 L 116.5 226 Z " /><path fill="rgb(0,116,93)" stroke="rgb(0,116,93)" stroke-width="1" opacity="0.3254901960784314" d="M 180.5 226 L 184 226.5 L 180.5 227 L 180.5 226 Z " /><path fill="rgb(0,116,93)" stroke="rgb(0,116,93)" stroke-width="1" opacity="0.3254901960784314" d="M 109.5 227 L 114 227.5 L 109.5 228 L 109.5 227 Z " /><path fill="rgb(0,116,93)" stroke="rgb(0,116,93)" stroke-width="1" opacity="0.3254901960784314" d="M 173.5 227 L 178 227.5 L 173.5 228 L 173.5 227 Z " /><path fill="rgb(0,116,93)" stroke="rgb(0,116,93)" stroke-width="1" opacity="0.3254901960784314" d="M 102.5 228 L 107 228.5 L 102.5 229 L 102.5 228 Z " /><path fill="rgb(0,116,93)" stroke="rgb(0,116,93)" stroke-width="1" opacity="0.3254901960784314" d="M 166.5 228 L 171 228.5 L 166.5 229 L 166.5 228 Z " /><path fill="rgb(0,116,93)" stroke="rgb(0,116,93)" stroke-width="1" opacity="0.3254901960784314" d="M 97.5 229 L 100 229.5 L 97.5 230 L 97.5 229 Z " /><path fill="rgb(0,116,93)" stroke="rgb(0,116,93)" stroke-width="1" opacity="0.3254901960784314" d="M 161.5 229 L 164 229.5 L 161.5 230 L 161.5 229 Z " /><path fill="rgb(0,116,93)" stroke="rgb(0,116,93)" stroke-width="1" opacity="0.3254901960784314" d="M 91.5 230 L 95 230.5 L 91.5 231 L 91.5 230 Z " /><path fill="rgb(0,116,93)" stroke="rgb(0,116,93)" stroke-width="1" opacity="0.3254901960784314" d="M 155.5 230 L 159 230.5 L 155.5 231 L 155.5 230 Z " /><path fill="rgb(0,116,93)" stroke="rgb(0,116,93)" stroke-width="1" opacity="0.3254901960784314" d="M 89.5 231 L 89 232.5 L 88.5 234 L 88 232.5 L 89.5 231 Z " /><path fill="rgb(0,116,93)" stroke="rgb(0,116,93)" stroke-width="1" opacity="0.3254901960784314" d="M 130.5 231 L 137 231.5 L 130.5 232 L 130.5 231 Z " /><path fill="rgb(0,116,93)" stroke="rgb(0,116,93)" stroke-width="1" opacity="0.3254901960784314" d="M 153.5 231 L 153 232.5 L 152.5 234 L 152 232.5 L 153.5 231 Z " /><path fill="rgb(0,116,93)" stroke="rgb(0,116,93)" stroke-width="1" opacity="0.3254901960784314" d="M 194.5 231 L 201 231.5 L 194.5 232 L 194.5 231 Z " /><path fill="rgb(0,116,93)" stroke="rgb(0,116,93)" stroke-width="1" opacity="0.3254901960784314" d="M 128.5 232 L 129 234.5 L 128 234.5 L 128.5 232 Z " /><path fill="rgb(0,116,93)" stroke="rgb(0,116,93)" stroke-width="1" opacity="0.3254901960784314" d="M 192.5 232 L 193 234.5 L 192 234.5 L 192.5 232 Z " /><path fill="rgb(0,116,93)" stroke="rgb(0,116,93)" stroke-width="1" opacity="0.3254901960784314" d="M 114.5 233 L 118 233.5 L 114.5 234 L 114.5 233 Z " /><path fill="rgb(0,116,93)" stroke="rgb(0,116,93)" stroke-width="1" opacity="0.3254901960784314" d="M 178.5 233 L 182 233.5 L 178.5 234 L 178.5 233 Z " /><path fill="rgb(0,116,93)" stroke="rgb(0,116,93)" stroke-width="1" opacity="0.3254901960784314" d="M 108.5 234 L 112 234.5 L 108.5 235 L 108.5 234 Z " /><path fill="rgb(0,116,93)" stroke="rgb(0,116,93)" stroke-width="1" opacity="0.3254901960784314" d="M 172.5 234 L 176 234.5 L 172.5 235 L 172.5 234 Z " /><path fill="rgb(0,116,93)" stroke="rgb(0,116,93)" stroke-width="1" opacity="0.3254901960784314" d="M 88.5 235 L 89.5 237 L 88.5 235 Z " /><path fill="rgb(0,116,93)" stroke="rgb(0,116,93)" stroke-width="1" opacity="0.3254901960784314" d="M 101.5 235 L 106 235.5 L 101.5 236 L 101.5 235 Z " /><path fill="rgb(0,116,93)" stroke="rgb(0,116,93)" stroke-width="1" opacity="0.3254901960784314" d="M 139.5 235 L 143 235.5 L 139.5 236 L 139.5 235 Z " /><path fill="rgb(0,116,93)" stroke="rgb(0,116,93)" stroke-width="1" opacity="0.3254901960784314" d="M 152.5 235 L 153.5 237 L 152.5 235 Z " /><path fill="rgb(0,116,93)" stroke="rgb(0,116,93)" stroke-width="1" opacity="0.3254901960784314" d="M 165.5 235 L 170 235.5 L 165.5 236 L 165.5 235 Z " /><path fill="rgb(0,116,93)" stroke="rgb(0,116,93)" stroke-width="1" opacity="0.3254901960784314" d="M 203.5 235 L 207 235.5 L 203.5 236 L 203.5 235 Z " /><path fill="rgb(0,116,93)" stroke="rgb(0,116,93)" stroke-width="1" opacity="0.3254901960784314" d="M 95.5 236 L 99 236.5 L 95.5 237 L 95.5 236 Z " /><path fill="rgb(0,116,93)" stroke="rgb(0,116,93)" stroke-width="1" opacity="0.3254901960784314" d="M 144.5 236 L 146 238.5 L 146 250.5 L 145 250.5 Q 145.8 240.3 144.5 236 Z " /><path fill="rgb(0,116,93)" stroke="rgb(0,116,93)" stroke-width="1" opacity="0.3254901960784314" d="M 159.5 236 L 163 236.5 L 159.5 237 L 159.5 236 Z " /><path fill="rgb(0,116,93)" stroke="rgb(0,116,93)" stroke-width="1" opacity="0.3254901960784314" d="M 208.5 236 L 210 238.5 L 210 250.5 L 209 250.5 Q 209.8 240.3 208.5 236 Z " /><path fill="rgb(0,116,93)" stroke="rgb(0,116,93)" stroke-width="1" opacity="0.3254901960784314" d="M 120.5 237 L 121 245.5 L 120 245.5 L 120.5 237 Z " /><path fill="rgb(0,116,93)" stroke="rgb(0,116,93)" stroke-width="1" opacity="0.3254901960784314" d="M 138.5 237 L 139 241.5 L 138 241.5 L 138.5 237 Z " /><path fill="rgb(0,116,93)" stroke="rgb(0,116,93)" stroke-width="1" opacity="0.3254901960784314" d="M 184.5 237 L 185 245.5 L 184 245.5 L 184.5 237 Z " /><path fill="rgb(0,116,93)" stroke="rgb(0,116,93)" stroke-width="1" opacity="0.3254901960784314" d="M 202.5 237 L 203 241.5 L 202 241.5 L 202.5 237 Z " /><path fill="rgb(0,116,93)" stroke="rgb(0,116,93)" stroke-width="1" opacity="0.3254901960784314" d="M 127.5 241 L 128 243.5 L 127 243.5 L 127.5 241 Z " /><path fill="rgb(0,116,93)" stroke="rgb(0,116,93)" stroke-width="1" opacity="0.3254901960784314" d="M 191.5 241 L 192 243.5 L 191 243.5 L 191.5 241 Z " /><path fill="rgb(0,116,93)" stroke="rgb(0,116,93)" stroke-width="1" opacity="0.3254901960784314" d="M 95.5 242 Q 99.3 241.3 100 243.5 L 99.5 245 L 99 243 Q 95.2 242 94 244.5 L 93.5 250 L 93 244.5 L 95.5 242 Z " /><path fill="rgb(0,116,93)" stroke="rgb(0,116,93)" stroke-width="1" opacity="0.3254901960784314" d="M 159.5 242 Q 163.3 241.3 164 243.5 L 163.5 245 L 163 243 Q 159.2 242 158 244.5 L 157.5 250 L 157 244.5 L 159.5 242 Z " /><path fill="rgb(0,116,93)" stroke="rgb(0,116,93)" stroke-width="1" opacity="0.3254901960784314" d="M 126.5 245 L 127 247 L 138 247.5 L 126 248 L 126.5 245 Z " /><path fill="rgb(0,116,93)" stroke="rgb(0,116,93)" stroke-width="1" opacity="0.3254901960784314" d="M 190.5 245 L 191 247 L 202 247.5 L 190 248 L 190.5 245 Z " /><path fill="rgb(0,116,93)" stroke="rgb(0,116,93)" stroke-width="1" opacity="0.3254901960784314" d="M 100.5 247 L 101 249.5 L 100 249.5 L 100.5 247 Z " /><path fill="rgb(0,116,93)" stroke="rgb(0,116,93)" stroke-width="1" opacity="0.3254901960784314" d="M 120.5 247 L 119.5 249 L 115 248.5 L 120.5 247 Z " /><path fill="rgb(0,116,93)" stroke="rgb(0,116,93)" stroke-width="1" opacity="0.3254901960784314" d="M 164.5 247 L 165 249.5 L 164 249.5 L 164.5 247 Z " /><path fill="rgb(0,116,93)" stroke="rgb(0,116,93)" stroke-width="1" opacity="0.3254901960784314" d="M 184.5 247 L 183.5 249 L 179 248.5 L 184.5 247 Z " /><path fill="rgb(0,116,93)" stroke="rgb(0,116,93)" stroke-width="1" opacity="0.3254901960784314" d="M 109.5 249 L 113 249.5 L 109.5 250 L 109.5 249 Z " /><path fill="rgb(0,116,93)" stroke="rgb(0,116,93)" stroke-width="1" opacity="0.3254901960784314" d="M 173.5 249 L 177 249.5 L 173.5 250 L 173.5 249 Z " /><path fill="rgb(0,116,93)" stroke="rgb(0,116,93)" stroke-width="1" opacity="0.3254901960784314" d="M 104.5 250 L 107 250.5 L 104.5 251 L 104.5 250 Z " /><path fill="rgb(0,116,93)" stroke="rgb(0,116,93)" stroke-width="1" opacity="0.3254901960784314" d="M 168.5 250 L 171 250.5 L 168.5 251 L 168.5 250 Z " /><path fill="rgb(0,116,93)" stroke="rgb(0,116,93)" stroke-width="1" opacity="0.3254901960784314" d="M 94.5 252 L 95 254.5 L 94 254.5 L 94.5 252 Z " /><path fill="rgb(0,116,93)" stroke="rgb(0,116,93)" stroke-width="1" opacity="0.3254901960784314" d="M 158.5 252 L 159 254.5 L 158 254.5 L 158.5 252 Z " /><path fill="rgb(0,116,93)" stroke="rgb(0,116,93)" stroke-width="1" opacity="0.3254901960784314" d="M 125.5 254 L 136.5 254 L 138 255.5 L 137.5 257 L 137 255 L 125.5 255 L 125.5 254 Z " /><path fill="rgb(0,116,93)" stroke="rgb(0,116,93)" stroke-width="1" opacity="0.3254901960784314" d="M 189.5 254 L 200.5 254 L 202 255.5 L 201.5 257 L 201 255 L 189.5 255 L 189.5 254 Z " /><path fill="rgb(0,116,93)" stroke="rgb(0,116,93)" stroke-width="1" opacity="0.3254901960784314" d="M 115.5 255 L 121 255.5 L 115.5 256 L 115.5 255 Z " /><path fill="rgb(0,116,93)" stroke="rgb(0,116,93)" stroke-width="1" opacity="0.3254901960784314" d="M 179.5 255 L 185 255.5 L 179.5 256 L 179.5 255 Z " /><path fill="rgb(0,116,93)" stroke="rgb(0,116,93)" stroke-width="1" opacity="0.3254901960784314" d="M 108.5 256 L 112 256.5 L 108.5 257 L 108.5 256 Z " /><path fill="rgb(0,116,93)" stroke="rgb(0,116,93)" stroke-width="1" opacity="0.3254901960784314" d="M 144.5 256 L 145 260.5 L 144 260.5 L 144.5 256 Z " /><path fill="rgb(0,116,93)" stroke="rgb(0,116,93)" stroke-width="1" opacity="0.3254901960784314" d="M 172.5 256 L 176 256.5 L 172.5 257 L 172.5 256 Z " /><path fill="rgb(0,116,93)" stroke="rgb(0,116,93)" stroke-width="1" opacity="0.3254901960784314" d="M 208.5 256 L 209 260.5 L 208 260.5 L 208.5 256 Z " /><path fill="rgb(0,116,93)" stroke="rgb(0,116,93)" stroke-width="1" opacity="0.3254901960784314" d="M 95.5 257 L 96 259.5 L 95 259.5 L 95.5 257 Z " /><path fill="rgb(0,116,93)" stroke="rgb(0,116,93)" stroke-width="1" opacity="0.3254901960784314" d="M 104.5 257 L 107 257.5 L 104 258 L 103.5 261 L 103 258.5 L 104.5 257 Z " /><path fill="rgb(0,116,93)" stroke="rgb(0,116,93)" stroke-width="1" opacity="0.3254901960784314" d="M 159.5 257 L 160 259.5 L 159 259.5 L 159.5 257 Z " /><path fill="rgb(0,116,93)" stroke="rgb(0,116,93)" stroke-width="1" opacity="0.3254901960784314" d="M 168.5 257 L 171 257.5 L 168 258 L 167.5 261 L 167 258.5 L 168.5 257 Z " /><path fill="rgb(0,116,93)" stroke="rgb(0,116,93)" stroke-width="1" opacity="0.3254901960784314" d="M 136.5 259 L 137 260.5 L 133.5 263 L 133.5 262 L 136 260.5 L 136.5 259 Z " /><path fill="rgb(0,116,93)" stroke="rgb(0,116,93)" stroke-width="1" opacity="0.3254901960784314" d="M 200.5 259 L 201 260.5 L 197.5 263 L 197.5 262 L 200 260.5 L 200.5 259 Z " /><path fill="rgb(0,116,93)" stroke="rgb(0,116,93)" stroke-width="1" opacity="0.3254901960784314" d="M 96.5 261 L 97 264.5 L 96 264.5 L 96.5 261 Z " /><path fill="rgb(0,116,93)" stroke="rgb(0,116,93)" stroke-width="1" opacity="0.3254901960784314" d="M 160.5 261 L 161 264.5 L 160 264.5 L 160.5 261 Z " /><path fill="rgb(0,116,93)" stroke="rgb(0,116,93)" stroke-width="1" opacity="0.3254901960784314" d="M 104.5 263 L 105 265 L 111 265.5 L 105.5 266 L 104.5 263 Z " /><path fill="rgb(0,116,93)" stroke="rgb(0,116,93)" stroke-width="1" opacity="0.3254901960784314" d="M 126.5 263 L 132 263.5 L 126.5 264 L 126.5 263 Z " /><path fill="rgb(0,116,93)" stroke="rgb(0,116,93)" stroke-width="1" opacity="0.3254901960784314" d="M 143.5 263 L 144 264.5 L 140.5 269 L 136.5 270 L 136.5 269 L 142 266.5 L 143.5 263 Z " /><path fill="rgb(0,116,93)" stroke="rgb(0,116,93)" stroke-width="1" opacity="0.3254901960784314" d="M 168.5 263 L 169 265 L 175 265.5 L 169.5 266 L 168.5 263 Z " /><path fill="rgb(0,116,93)" stroke="rgb(0,116,93)" stroke-width="1" opacity="0.3254901960784314" d="M 190.5 263 L 196 263.5 L 190.5 264 L 190.5 263 Z " /><path fill="rgb(0,116,93)" stroke="rgb(0,116,93)" stroke-width="1" opacity="0.3254901960784314" d="M 207.5 263 L 208 264.5 L 204.5 269 L 200.5 270 L 200.5 269 L 206 266.5 L 207.5 263 Z " /><path fill="rgb(0,116,93)" stroke="rgb(0,116,93)" stroke-width="1" opacity="0.3254901960784314" d="M 115.5 264 L 122 264.5 L 115.5 265 L 115.5 264 Z " /><path fill="rgb(0,116,93)" stroke="rgb(0,116,93)" stroke-width="1" opacity="0.3254901960784314" d="M 179.5 264 L 186 264.5 L 179.5 265 L 179.5 264 Z " /><path fill="rgb(0,116,93)" stroke="rgb(0,116,93)" stroke-width="1" opacity="0.3254901960784314" d="M 123.5 270 L 133 270.5 L 123.5 271 L 123.5 270 Z " /><path fill="rgb(0,116,93)" stroke="rgb(0,116,93)" stroke-width="1" opacity="0.3254901960784314" d="M 187.5 270 L 197 270.5 L 187.5 271 L 187.5 270 Z " /><path fill="rgb(0,116,93)" stroke="rgb(0,116,93)" stroke-width="1" opacity="0.3254901960784314" d="M 109.5 271 L 117 271.5 L 109.5 272 L 109.5 271 Z " /><path fill="rgb(0,116,93)" stroke="rgb(0,116,93)" stroke-width="1" opacity="0.3254901960784314" d="M 173.5 271 L 181 271.5 L 173.5 272 L 173.5 271 Z " /></svg>