<svg width="72" height="72" version="1.1" xmlns="http://www.w3.org/2000/svg" desc="Created with imagetracer.js version 1.2.6" ><path fill="rgb(0,0,0)" stroke="rgb(0,0,0)" stroke-width="1" opacity="0.6313725490196078" d="M 28.5 3 L 31 3.5 L 28.5 4 L 28.5 3 Z " /><path fill="rgb(0,0,0)" stroke="rgb(0,0,0)" stroke-width="1" opacity="0.6313725490196078" d="M 36.5 4 L 37.5 6 L 36.5 4 Z " /><path fill="rgb(0,0,0)" stroke="rgb(0,0,0)" stroke-width="1" opacity="0.6313725490196078" d="M 23.5 5 L 22.5 7 L 23.5 5 Z " /><path fill="rgb(0,0,0)" stroke="rgb(0,0,0)" stroke-width="1" opacity="0.6313725490196078" d="M 20.5 10 L 21 12.5 L 20 12.5 L 20.5 10 Z " /><path fill="rgb(0,0,0)" stroke="rgb(0,0,0)" stroke-width="1" opacity="0.6313725490196078" d="M 17.5 12 L 18 15.5 L 17 15.5 L 17.5 12 Z " /><path fill="rgb(0,0,0)" stroke="rgb(0,0,0)" stroke-width="1" opacity="0.6313725490196078" d="M 20.5 16 L 21 18.5 L 20 18.5 L 20.5 16 Z " /><path fill="rgb(0,0,0)" stroke="rgb(0,0,0)" stroke-width="1" opacity="0.6313725490196078" d="M 20.5 24 L 21 26.5 L 20 26.5 L 20.5 24 Z " /><path fill="rgb(0,0,0)" stroke="rgb(0,0,0)" stroke-width="1" opacity="0.6313725490196078" d="M 40.5 28 L 41 30.5 L 40 30.5 L 40.5 28 Z " /><path fill="rgb(0,0,0)" stroke="rgb(0,0,0)" stroke-width="1" opacity="0.6313725490196078" d="M 44.5 29 L 43.5 31 L 44.5 29 Z " /><path fill="rgb(0,0,0)" stroke="rgb(0,0,0)" stroke-width="1" opacity="0.6313725490196078" d="M 24.5 34 L 25.5 36 L 24.5 34 Z " /><path fill="rgb(0,0,0)" stroke="rgb(0,0,0)" stroke-width="1" opacity="0.6313725490196078" d="M 37.5 36 L 38 42.5 L 37 42.5 L 37.5 36 Z " /><path fill="rgb(0,0,0)" stroke="rgb(0,0,0)" stroke-width="1" opacity="0.6313725490196078" d="M 40.5 37 L 41 42.5 L 40 42.5 L 40.5 37 Z " /><path fill="rgb(0,0,0)" stroke="rgb(0,0,0)" stroke-width="1" opacity="0.6313725490196078" d="M 38.5 44 L 40.5 47 L 38.5 44 Z " /><path fill="rgb(0,0,0)" stroke="rgb(0,0,0)" stroke-width="1" opacity="0.6313725490196078" d="M 69.5 46 L 72 47.5 L 70.5 47 L 68.5 48 L 69.5 46 Z " /><path fill="rgb(0,0,0)" stroke="rgb(0,0,0)" stroke-width="1" opacity="0.6313725490196078" d="M 70.5 49 L 69.5 51 L 70.5 49 Z " /><path fill="rgb(0,0,0)" stroke="rgb(0,0,0)" stroke-width="1" opacity="0.6313725490196078" d="M 8.5 50 L 7.5 52 L 8.5 50 Z " /><path fill="rgb(0,0,0)" stroke="rgb(0,0,0)" stroke-width="1" opacity="0.6313725490196078" d="M 54.5 53 L 55.5 55 L 54.5 53 Z " /><path fill="rgb(0,0,0)" stroke="rgb(0,0,0)" stroke-width="1" opacity="0.6313725490196078" d="M 67.5 53 L 66.5 55 L 67.5 53 Z " /><path fill="rgb(0,0,0)" stroke="rgb(0,0,0)" stroke-width="1" opacity="0.6313725490196078" d="M 58.5 54 L 59 55.5 L 57 56.5 L 58.5 54 Z " /><path fill="rgb(0,0,0)" stroke="rgb(0,0,0)" stroke-width="1" opacity="0.6313725490196078" d="M 62.5 55 L 61.5 57 L 62.5 55 Z " /><path fill="rgb(0,0,0)" stroke="rgb(0,0,0)" stroke-width="1" opacity="0.6313725490196078" d="M 50.5 58 L 53.5 62 L 50.5 58 Z " /><path fill="rgb(0,0,0)" stroke="rgb(0,0,0)" stroke-width="1" opacity="0.6313725490196078" d="M 54.5 58 L 56.5 61 L 54.5 58 Z " /><path fill="rgb(0,0,0)" stroke="rgb(0,0,0)" stroke-width="1" opacity="0.6313725490196078" d="M 63.5 58 L 62.5 60 L 63.5 58 Z " /><path fill="rgb(0,0,0)" stroke="rgb(0,0,0)" stroke-width="1" opacity="0" d="M 0 0 L 29 0.5 Q 22.3 1.3 19 5.5 Q 15.9 9.9 17 18.5 L 18 22.5 L 17 27.5 L 23 37.5 L 23 41.5 L 22 44 L 9.5 49 L 4 54.5 L 2 62 L 50 61.5 L 46.5 59 L 6 58.5 L 11.5 52 L 25 45.5 Q 27.3 42.3 26 35.5 L 21 24.5 L 22 21.5 L 21 20.5 L 21 9.5 L 23.5 6 Q 27.2 2.7 35.5 4 L 42 8.5 L 43 16.5 L 41 22.5 Q 44.5 24 42 25.5 Q 43 29.3 40 28 L 40 31.5 Q 35.3 34.3 37 43.5 L 41.5 48 L 53.5 53 L 56 55.5 Q 55.3 57.8 57.5 57 L 59 53.5 L 55.5 50 L 43.5 45 L 41 42.5 L 41 36.5 L 46 28.5 L 47 11.5 L 42.5 4 L 35 0.5 L 72 0 L 71.5 47 L 69.5 46 L 57.5 61 L 48.5 53 L 47 56.5 L 56.5 65 L 58.5 65 L 71.5 49 L 72 72 L 0 72 L 0 0 Z " /><path fill="rgb(0,0,0)" stroke="rgb(0,0,0)" stroke-width="1" opacity="0.9764705882352941" d="M 27.5 1 L 35.5 1 L 45 7.5 L 46 18.5 L 45 23.5 L 46 25.5 L 40 37.5 L 40 42.5 L 42.5 45 L 54.5 50 L 58 53.5 Q 59 57.3 56 56 L 54.5 53 L 41.5 47 L 38 43.5 L 38 35.5 Q 41.5 33.3 41 28 Q 44.7 29.4 43 23.5 L 42 21.5 L 43 20.5 L 43 9.5 L 42 7 L 34.5 3 L 28.5 3 L 22 6.5 Q 18.7 10.2 20 18.5 L 21 23.5 L 20 26.5 L 23 29.5 Q 22.4 35.1 26 36.5 L 26 42.5 L 23.5 46 L 10.5 52 L 6 56.5 L 6.5 59 L 45.5 59 L 49 61.5 L 3 62 L 3 58.5 L 6 52 L 19.5 46 L 23 42.5 L 23 36.5 L 18 27.5 L 18 22.5 L 18 20.5 Q 15.8 7.3 22.5 3 L 27.5 1 Z " /><path fill="rgb(0,0,0)" stroke="rgb(0,0,0)" stroke-width="1" opacity="0.9764705882352941" d="M 69.5 47 Q 71.8 46.3 71 48.5 L 59 65 L 48 56.5 Q 46.9 53.2 49.5 54 L 56.5 61 L 59 61 L 69.5 47 Z " /><path fill="rgb(0,0,0)" stroke="rgb(0,0,0)" stroke-width="1" opacity="0.23921568627450981" d="M 29.5 0 L 35 0.5 L 29.5 1 L 29.5 0 Z " /><path fill="rgb(0,0,0)" stroke="rgb(0,0,0)" stroke-width="1" opacity="0.23921568627450981" d="M 37.5 1 L 38.5 3 L 37.5 1 Z " /><path fill="rgb(0,0,0)" stroke="rgb(0,0,0)" stroke-width="1" opacity="0.23921568627450981" d="M 21.5 3 L 19.5 6 L 21.5 3 Z " /><path fill="rgb(0,0,0)" stroke="rgb(0,0,0)" stroke-width="1" opacity="0.23921568627450981" d="M 46.5 11 L 47 16.5 L 46 16.5 L 46.5 11 Z " /><path fill="rgb(0,0,0)" stroke="rgb(0,0,0)" stroke-width="1" opacity="0.23921568627450981" d="M 20.5 13 L 21 15.5 L 20 15.5 L 20.5 13 Z " /><path fill="rgb(0,0,0)" stroke="rgb(0,0,0)" stroke-width="1" opacity="0.23921568627450981" d="M 17.5 16 L 18 18.5 L 17 18.5 L 17.5 16 Z " /><path fill="rgb(0,0,0)" stroke="rgb(0,0,0)" stroke-width="1" opacity="0.23921568627450981" d="M 45.5 20 L 46 22.5 L 45 22.5 L 45.5 20 Z " /><path fill="rgb(0,0,0)" stroke="rgb(0,0,0)" stroke-width="1" opacity="0.23921568627450981" d="M 18.5 29 L 19.5 31 L 18.5 29 Z " /><path fill="rgb(0,0,0)" stroke="rgb(0,0,0)" stroke-width="1" opacity="0.23921568627450981" d="M 38.5 34 L 37.5 36 L 38.5 34 Z " /><path fill="rgb(0,0,0)" stroke="rgb(0,0,0)" stroke-width="1" opacity="0.23921568627450981" d="M 24.5 45 L 23.5 47 L 24.5 45 Z " /><path fill="rgb(0,0,0)" stroke="rgb(0,0,0)" stroke-width="1" opacity="0.23921568627450981" d="M 67.5 48 L 66.5 50 L 67.5 48 Z " /><path fill="rgb(0,0,0)" stroke="rgb(0,0,0)" stroke-width="1" opacity="0.23921568627450981" d="M 55.5 50 L 58.5 54 L 55.5 50 Z " /><path fill="rgb(0,0,0)" stroke="rgb(0,0,0)" stroke-width="1" opacity="0.23921568627450981" d="M 64.5 52 L 63.5 54 L 64.5 52 Z " /><path fill="rgb(0,0,0)" stroke="rgb(0,0,0)" stroke-width="1" opacity="0.23921568627450981" d="M 9.5 53 L 7.5 56 L 9.5 53 Z " /><path fill="rgb(0,0,0)" stroke="rgb(0,0,0)" stroke-width="1" opacity="0.23921568627450981" d="M 51.5 55 L 53.5 58 L 51.5 55 Z " /><path fill="rgb(0,0,0)" stroke="rgb(0,0,0)" stroke-width="1" opacity="0.23921568627450981" d="M 47.5 56 L 48.5 58 L 47.5 56 Z " /><path fill="rgb(0,0,0)" stroke="rgb(0,0,0)" stroke-width="1" opacity="0.23921568627450981" d="M 65.5 56 L 64.5 58 L 65.5 56 Z " /><path fill="rgb(0,0,0)" stroke="rgb(0,0,0)" stroke-width="1" opacity="0.23921568627450981" d="M 60.5 57 L 59.5 59 L 60.5 57 Z " /><path fill="rgb(0,0,0)" stroke="rgb(0,0,0)" stroke-width="1" opacity="0.23921568627450981" d="M 48.5 60 L 49.5 62 L 48.5 60 Z " /><path fill="rgb(0,0,0)" stroke="rgb(0,0,0)" stroke-width="1" opacity="0.23921568627450981" d="M 61.5 61 L 60.5 63 L 61.5 61 Z " /><path fill="rgb(0,0,0)" stroke="rgb(0,0,0)" stroke-width="1" opacity="0.23921568627450981" d="M 54.5 62 L 56.5 65 L 54.5 62 Z " /></svg>